Coordinates
version=1
nRows=16
nColumns=40
inDegrees=yes

Units are S.I. units (second, meters, Newtons, ...)
Angles are in degrees.

endheader
time	pelvis_tilt	pelvis_list	pelvis_rotation	pelvis_tx	pelvis_ty	pelvis_tz	hip_flexion_r	hip_adduction_r	hip_rotation_r	knee_angle_r	knee_angle_r_beta	ankle_angle_r	subtalar_angle_r	mtp_angle_r	hip_flexion_l	hip_adduction_l	hip_rotation_l	knee_angle_l	knee_angle_l_beta	ankle_angle_l	subtalar_angle_l	mtp_angle_l	lumbar_extension	lumbar_bending	lumbar_rotation	arm_flex_r	arm_add_r	arm_rot_r	elbow_flex_r	pro_sup_r	wrist_flex_r	wrist_dev_r	arm_flex_l	arm_add_l	arm_rot_l	elbow_flex_l	pro_sup_l	wrist_flex_l	wrist_dev_l
     47.74000000	     -6.10270203	     -5.86438936	      5.40328535	      0.95910149	      0.91948198	      0.46270887	     -1.87257878	      6.98017554	    -20.75716280	      5.62565757	      5.62565757	     15.45994579	      8.59115374	     -2.42888268	     33.91279877	     -6.85237035	     -5.53270828	     17.01744363	     17.01744363	      5.32803887	     -7.66597611	     12.14320330	     -7.16877397	      6.81462520	      4.06984655	     48.77601984	    -17.99144557	     -7.74903192	     89.03983223	     44.54061058	      0.00000000	      0.00000000	    -12.42778796	     -6.58576701	      8.84860080	     22.74783695	     44.24718516	      0.00000000	      0.00000000
     47.75200000	     -6.22247716	     -5.88797223	      5.26247517	      0.95992161	      0.91852279	      0.46108009	     -2.09424118	      6.79482511	    -20.79710021	      6.13783935	      6.13783935	     16.23164839	      8.88585966	     -1.65737520	     33.58840588	     -6.62963775	     -5.22771892	     17.63647863	     17.63647863	      4.14940355	     -9.57611949	     11.49677882	     -6.94022743	      6.75615025	      4.29688543	     48.02028288	    -18.33029762	     -8.11023410	     90.18814579	     44.53110902	      0.00000000	      0.00000000	    -12.51872102	     -6.70268450	      9.04141278	     23.00543998	     44.23273943	      0.00000000	      0.00000000
     47.76400000	     -6.21335661	     -5.77465938	      5.06613993	      0.96097504	      0.91784910	      0.45946941	     -2.52103586	      6.49503118	    -20.60185466	      6.53546890	      6.53546890	     16.73877020	      8.92047648	     -1.37173992	     33.10552543	     -6.45557703	     -5.45138349	     18.35661274	     18.35661274	      3.57302718	    -10.40687708	     11.22750169	     -6.83144541	      6.53480624	      4.29673216	     47.30612732	    -18.37499961	     -8.22529201	     90.39799913	     44.53343262	      0.00000000	      0.00000000	    -12.51855227	     -6.82994299	      9.10320720	     23.07306659	     44.23293941	      0.00000000	      0.00000000
     47.77600000	     -6.30572246	     -5.66961453	      4.82861665	      0.96201547	      0.91710495	      0.45784137	     -2.59264688	      6.09433323	    -20.38838430	      7.46748456	      7.46748456	     17.84605376	      8.84742641	      0.14401234	     32.61319555	     -6.19655983	     -5.17292300	     18.73983091	     18.73983091	      2.39917161	    -11.97905358	     10.04407996	     -6.66290542	      6.28942031	      4.63734271	     46.05879711	    -18.69174890	     -8.83156160	     91.39691500	     44.55023239	      0.00000000	      0.00000000	    -12.35193017	     -7.02035297	      9.31242829	     23.40101215	     44.25037885	      0.00000000	      0.00000000
     47.78800000	     -6.24943188	     -5.57450211	      4.58408209	      0.96319167	      0.91660743	      0.45622655	     -2.96538487	      5.77165305	    -20.10413232	      8.05381358	      8.05381358	     18.24408333	      8.71393484	      0.17885281	     32.21812719	     -6.12300822	     -5.26038928	     19.58787782	     19.58787782	      2.22888484	    -12.52465976	      9.80409067	     -6.60579026	      6.06967630	      4.48995272	     45.16411065	    -18.53848765	     -8.78950349	     91.24611557	     44.55506240	      0.00000000	      0.00000000	    -12.18725213	     -7.12912856	      9.32963578	     23.44864503	     44.25878449	      0.00000000	      0.00000000
     47.80000000	     -6.32297989	     -5.42146833	      4.32315624	      0.96418265	      0.91599360	      0.45449918	     -2.80956778	      5.24505348	    -19.67892243	      9.39919171	      9.39919171	     18.88428988	      8.08215690	      0.28938402	     31.99564695	     -5.95463254	     -5.20163801	     20.37954965	     20.37954965	      2.06016743	    -13.32060685	      9.28968422	     -6.42699129	      5.80308572	      4.44521240	     44.03909329	    -18.49602449	     -8.88545150	     91.08814197	     44.56829142	      0.00000000	      0.00000000	    -11.89955474	     -7.28117768	      9.32473032	     23.58911708	     44.28138391	      0.00000000	      0.00000000
     47.81200000	     -6.32054574	     -5.22243992	      4.06053661	      0.96519873	      0.91576002	      0.45274717	     -2.68812126	      4.66750877	    -19.14815025	     10.81484390	     10.81484390	     19.39634757	      7.32285255	      0.40178034	     31.65119230	     -5.76432146	     -5.13737543	     21.02246330	     21.02246330	      2.00545639	    -13.95953400	      8.67396237	     -6.35546219	      5.49634571	      4.41319126	     42.68976884	    -18.36861512	     -8.95409781	     90.83646036	     44.58350073	      0.00000000	      0.00000000	    -11.43139361	     -7.41496270	      9.30603313	     23.75485160	     44.31207556	      0.00000000	      0.00000000
     47.82400000	     -6.28855722	     -5.02666039	      3.79411943	      0.96617883	      0.91572756	      0.45091359	     -2.45240196	      4.05998731	    -18.55007027	     12.47533278	     12.47533278	     19.83174563	      6.39135780	      0.33851752	     31.30444859	     -5.59872952	     -5.12814977	     21.65467746	     21.65467746	      2.15364718	    -14.50202595	      7.95634734	     -6.32130923	      5.18339545	      4.33353470	     41.21009415	    -18.24435709	     -8.99902631	     90.43845268	     44.60237636	      0.00000000	      0.00000000	    -10.83296865	     -7.56987002	      9.27798459	     23.88284116	     44.34823525	      0.00000000	      0.00000000
     47.83600000	     -6.17070824	     -4.79914198	      3.54238368	      0.96722152	      0.91604290	      0.44895862	     -2.20667334	      3.38998455	    -17.99885933	     14.30972648	     14.30972648	     20.07202709	      5.42052560	      0.03334308	     30.87571128	     -5.41854269	     -5.20187222	     22.28373061	     22.28373061	      2.52382709	    -14.92706743	      7.31934473	     -6.35622452	      4.87201902	      4.18647157	     39.64070149	    -18.07449257	     -8.94281752	     89.87732947	     44.61973584	      0.00000000	      0.00000000	    -10.16324326	     -7.74128741	      9.24840493	     23.98424294	     44.38061094	      0.00000000	      0.00000000
     47.84800000	     -6.11539548	     -4.56239788	      3.27100387	      0.96806443	      0.91646926	      0.44697656	     -1.55089063	      2.62722187	    -17.32527604	     16.74403769	     16.74403769	     20.14180663	      4.08834035	     -0.58400886	     30.47595391	     -5.22810681	     -5.31049753	     22.80519632	     22.80519632	      2.98537839	    -15.24755175	      6.64054398	     -6.37642954	      4.53656559	      4.10626310	     37.90582046	    -17.92854487	     -8.85585701	     89.09292080	     44.64341341	      0.00000000	      0.00000000	     -9.28615184	     -7.88275596	      9.22059858	     24.07048414	     44.41872121	      0.00000000	      0.00000000
     47.86000000	     -5.98820409	     -4.32859811	      3.02342545	      0.96890770	      0.91719838	      0.44483649	     -0.81910269	      1.83872698	    -16.69667448	     19.42176931	     19.42176931	     19.95258883	      2.65204062	     -1.44705335	     29.95283585	     -5.02973179	     -5.48501769	     23.23544922	     23.23544922	      3.53998489	    -15.49786896	      6.03565286	     -6.42000558	      4.26820993	      4.00011018	     36.07207298	    -17.74698499	     -8.70358990	     88.16763578	     44.66825397	      0.00000000	      0.00000000	     -8.30942145	     -8.02627178	      9.19607841	     24.13209174	     44.45696250	      0.00000000	      0.00000000
     47.87200000	     -5.91397731	     -4.21207292	      2.76832511	      0.96956094	      0.91801542	      0.44277830	      0.14730498	      1.27761679	    -15.61321957	     22.18862211	     22.18862211	     18.51398250	      0.01201308	     -4.69974457	     29.42180493	     -4.92812984	     -5.60396831	     23.49273646	     23.49273646	      3.91214609	    -15.78179432	      5.03833436	     -6.39766049	      4.13507146	      4.07332420	     34.13685535	    -17.65535111	     -8.70524314	     86.77744931	     44.73996175	      0.00000000	      0.00000000	     -6.83852838	     -8.01289822	      9.19873954	     23.35525057	     44.56115060	      0.00000000	      0.00000000
     47.88400000	     -5.78469069	     -3.91140600	      2.50000305	      0.97020396	      0.91901804	      0.44046528	      1.38271357	      0.24889076	    -15.25613969	     25.72228213	     25.72228213	     17.77255367	     -1.32090306	     -5.92246042	     28.74930417	     -4.64794675	     -5.97104657	     23.67363341	     23.67363341	      4.55888832	    -15.80323643	      4.63265239	     -6.47991102	      3.83193876	      3.87982194	     32.14162822	    -17.42556987	     -8.40701202	     85.71608914	     44.76322580	      0.00000000	      0.00000000	     -5.76526631	     -8.17828814	      9.13858514	     23.63191814	     44.60498805	      0.00000000	      0.00000000
     47.89600000	     -5.75658497	     -3.76800261	      2.24625219	      0.97063613	      0.91996758	      0.43824641	      2.91376306	     -0.48262330	    -14.48133270	     29.34930092	     29.34930092	     16.03519313	     -3.86390480	     -8.29572732	     28.17499762	     -4.47879833	     -6.16854331	     23.77691511	     23.77691511	      5.12642056	    -15.92721772	      4.24218750	     -6.39829377	      3.70668394	      3.88737596	     30.01149314	    -17.36266302	     -8.14534880	     83.97214974	     44.81639852	      0.00000000	      0.00000000	     -4.43160123	     -8.27408416	      9.06174277	     23.70607693	     44.67269089	      0.00000000	      0.00000000
     47.90800000	     -5.46396724	     -3.43618947	      1.97613765	      0.97108458	      0.92125990	      0.43589989	      4.38806367	     -1.57002638	    -14.04711101	     33.42804185	     33.42804185	     14.49270232	     -5.63858362	     -9.38849036	     27.23567187	     -4.14817317	     -6.63006574	     23.80289243	     23.80289243	      5.74775046	    -15.85862900	      3.90184488	     -6.71123661	      3.43658659	      3.64132298	     28.02737454	    -16.99339039	     -7.80631863	     82.75647197	     44.84067422	      0.00000000	      0.00000000	     -3.19218056	     -8.48569372	      8.99962844	     24.00070066	     44.71527477	      0.00000000	      0.00000000
     47.92000000	     -5.32901281	     -3.22366141	      1.72451954	      0.97132234	      0.92230660	      0.43367143	      6.24189032	     -2.47769045	    -13.48747302	     37.68500666	     37.68500666	     12.45032010	     -7.85515451	    -10.31038095	     26.43313247	     -3.89220632	     -6.94371391	     23.71008070	     23.71008070	      6.30555731	    -15.79743317	      3.58506103	     -6.80543905	      3.28131146	      3.50935033	     25.85741025	    -16.73793985	     -7.47787289	     81.18998074	     44.87557242	      0.00000000	      0.00000000	     -1.83865811	     -8.66059692	      8.92384501	     24.36484279	     44.76104855	      0.00000000	      0.00000000
